<svg width="690" height="690" viewBox="0 0 690 690" fill="none" xmlns="http://www.w3.org/2000/svg">
<circle cx="345" cy="345" r="345" fill="#CFD8DC"/>
<g clip-path="url(#clip0_1_41)">
<path d="M471.343 116.34L413.274 100.78C397.247 96.4854 380.754 106.008 376.459 122.035L329.78 296.244C325.485 312.271 335.008 328.764 351.035 333.059C367.062 337.353 383.555 327.831 387.85 311.804L418.969 195.664L448.004 203.444C464.031 207.739 480.524 198.216 484.819 182.189L492.598 153.154C496.893 137.127 487.371 120.634 471.343 116.34Z" fill="#D32F2F"/>
<g clip-path="url(#clip1_1_41)">
<path fill-rule="evenodd" clip-rule="evenodd" d="M37.1088 502.466L247.05 177.48C254.113 165.957 266.343 159 279.522 159C292.7 159 305.035 165.957 311.994 177.48L444.729 395.652L495.545 309.774C499.868 302.6 507.459 298.143 515.682 298.143C523.906 298.143 531.496 302.6 535.819 309.883L654.179 483.917C621.819 553.733 566.8 610.908 498.563 646H490.485H411.413H183.437C121.346 614.068 70.1988 563.853 37.1088 502.466Z" fill="#1D2D35"/>
</g>
<path fill-rule="evenodd" clip-rule="evenodd" d="M41.1955 508.627L251.05 184.442C258.113 172.943 270.343 166 283.522 166C296.7 166 309.035 172.943 315.994 184.442L448.729 402.166L499.545 316.465C503.868 309.305 511.459 304.857 519.682 304.857C527.906 304.857 535.496 309.305 539.819 316.573L658.088 490.115C625.715 559.841 570.736 616.941 502.563 652H494.485H415.413H187.437C125.4 620.096 74.2881 569.941 41.1955 508.627Z" fill="#2C434F"/>
</g>
<path fill-rule="evenodd" clip-rule="evenodd" d="M97.1589 585C159.874 649.751 247.737 690 345 690C442.263 690 530.126 649.751 592.841 585H97.1589Z" fill="#2C434F"/>
<defs>
<clipPath id="clip0_1_41">
<rect width="674" height="539" fill="white" transform="translate(16 46)"/>
</clipPath>
<clipPath id="clip1_1_41">
<rect width="674" height="539" fill="white" transform="translate(12 40)"/>
</clipPath>
</defs>
</svg>
